<svg width="24" height="24" viewBox="0 0 24 24" fill="none" xmlns="http://www.w3.org/2000/svg">
<path d="M11.527 5.58521C11.8215 5.34547 12.2555 5.36273 12.5299 5.63697C12.8043 5.91158 12.8219 6.34636 12.5817 6.64088L12.5299 6.69752L7.97716 11.2503H17.8336L17.9098 11.2542C18.2878 11.2926 18.5834 11.6121 18.5836 12.0003C18.5834 12.3883 18.2877 12.7079 17.9098 12.7463L17.8336 12.7503H7.97716L12.5299 17.304L12.5817 17.3606C12.8217 17.6551 12.8043 18.09 12.5299 18.3645C12.2553 18.6383 11.8213 18.6551 11.527 18.4153L11.4694 18.3645L5.63634 12.5305C5.34379 12.2378 5.34396 11.7628 5.63634 11.47L11.4694 5.63697L11.527 5.58521Z" fill="#525252"/>
</svg>
