<svg width="24" height="24" viewBox="0 0 24 24" fill="none" xmlns="http://www.w3.org/2000/svg">
<path fill-rule="evenodd" clip-rule="evenodd" d="M15.333 2.91699C15.7472 2.91699 16.083 3.25278 16.083 3.66699V4.58398H17.833C19.1676 4.58398 20.2498 5.66546 20.25 7V18.667C20.2499 20.0016 19.1676 21.084 17.833 21.084H6.16699C4.83239 21.084 3.75013 20.0016 3.75 18.667V7C3.75018 5.66546 4.83241 4.58398 6.16699 4.58398H7.91699V3.66699C7.91699 3.25278 8.25278 2.91699 8.66699 2.91699C9.08106 2.91717 9.41699 3.25289 9.41699 3.66699V4.58398H14.583V3.66699C14.583 3.25289 14.9189 2.91717 15.333 2.91699ZM5.25 18.667C5.25013 19.1731 5.66081 19.584 6.16699 19.584H17.833C18.3392 19.584 18.7499 19.1731 18.75 18.667V11.084H5.25V18.667ZM6.16699 6.08398C5.66084 6.08398 5.25018 6.49389 5.25 7V9.58398H18.75V7C18.7498 6.49389 18.3392 6.08398 17.833 6.08398H16.083V7C16.0829 7.4141 15.7471 7.75 15.333 7.75C14.919 7.74982 14.5831 7.41399 14.583 7V6.08398H9.41699V7C9.41686 7.41399 9.08097 7.74982 8.66699 7.75C8.25286 7.75 7.91712 7.4141 7.91699 7V6.08398H6.16699Z" fill="white"/>
</svg>
