<svg width="24" height="24" viewBox="0 0 24 24" fill="none" xmlns="http://www.w3.org/2000/svg">
<path d="M12 6.25C12.414 6.25013 12.7498 6.58602 12.75 7V11.7832L14.7197 14.9365L14.7568 15.0029C14.9247 15.3439 14.8106 15.7639 14.4814 15.9697C14.1521 16.1755 13.7242 16.0943 13.4912 15.7939L13.4473 15.7314L11.3643 12.3975C11.2899 12.2784 11.25 12.1404 11.25 12V7C11.2502 6.58604 11.586 6.25018 12 6.25Z" fill="white"/>
<path fill-rule="evenodd" clip-rule="evenodd" d="M12 2.91699C17.0164 2.91712 21.0838 6.98364 21.084 12C21.0839 17.0164 17.0164 21.0839 12 21.084C6.98364 21.0838 2.91712 17.0164 2.91699 12C2.91717 6.98367 6.98367 2.91717 12 2.91699ZM12 4.41699C7.8121 4.41717 4.41717 7.8121 4.41699 12C4.41712 16.1879 7.81207 19.5838 12 19.584C16.188 19.5839 19.5839 16.188 19.584 12C19.5838 7.81207 16.1879 4.41712 12 4.41699Z" fill="white"/>
</svg>
