<svg width="24" height="24" viewBox="0 0 24 24" fill="none" xmlns="http://www.w3.org/2000/svg">
<path d="M12 6.25C12.414 6.25016 12.7498 6.58604 12.75 7V11.5361L15.6689 12.9961L15.7363 13.0342C16.0567 13.2377 16.178 13.655 16.0049 14.002C15.8312 14.3492 15.4238 14.5029 15.0684 14.3682L14.998 14.3379L11.665 12.6709C11.411 12.5439 11.2501 12.284 11.25 12V7C11.2502 6.58604 11.586 6.25018 12 6.25Z" fill="#171717"/>
<path fill-rule="evenodd" clip-rule="evenodd" d="M12 2.91699C17.0163 2.91716 21.0838 6.98366 21.084 12C21.0839 17.0164 17.0164 21.0838 12 21.084C6.98364 21.0838 2.91712 17.0164 2.91699 12C2.91717 6.98367 6.98367 2.91717 12 2.91699ZM12 4.41699C7.8121 4.41717 4.41717 7.8121 4.41699 12C4.41712 16.1879 7.81207 19.5838 12 19.584C16.1879 19.5838 19.5839 16.1879 19.584 12C19.5838 7.81209 16.1879 4.41716 12 4.41699Z" fill="#171717"/>
</svg>
