<svg width="24" height="24" viewBox="0 0 24 24" fill="none" xmlns="http://www.w3.org/2000/svg">
<path fill-rule="evenodd" clip-rule="evenodd" d="M12.165 2.92871C12.2741 2.94399 12.3806 2.97404 12.4814 3.01855L12.6279 3.09668L12.7626 3.19336C12.8473 3.26389 12.9222 3.34555 12.9843 3.43652L13.0683 3.58008L14.9931 7.47949L15.0546 7.58691C15.122 7.68958 15.2077 7.77992 15.3076 7.85254C15.4408 7.94938 15.5958 8.01219 15.7587 8.03613L20.0634 8.66602C20.2286 8.68995 20.3851 8.74878 20.5253 8.83691L20.6591 8.93457L20.7783 9.0498C20.852 9.132 20.9144 9.22398 20.9628 9.32324L21.0244 9.47754L21.0654 9.6377C21.0942 9.8007 21.0887 9.96895 21.0488 10.1309C20.9955 10.3467 20.8827 10.544 20.7236 10.6992L17.6093 13.7295L17.6103 13.7305C17.4921 13.8457 17.4036 13.9885 17.3525 14.1455C17.3015 14.3023 17.2887 14.4693 17.3164 14.6318L18.0517 18.915C18.0897 19.1339 18.0656 19.3595 17.9824 19.5654C17.8987 19.7722 17.7586 19.9519 17.5781 20.083C17.3974 20.2142 17.1827 20.2921 16.9599 20.3076C16.7385 20.323 16.5174 20.2755 16.3212 20.1719L12.4726 18.1494C12.363 18.0919 12.2442 18.0549 12.122 18.04L11.999 18.0322C11.8755 18.0323 11.7534 18.0551 11.6386 18.0986L11.5263 18.1494L7.67964 20.1709L7.68062 20.1719C7.48371 20.276 7.26121 20.3224 7.03901 20.3066C6.8166 20.2908 6.60217 20.2132 6.42183 20.082C6.24164 19.9509 6.10206 19.771 6.01851 19.5645C5.95596 19.4096 5.92702 19.2438 5.93257 19.0781L5.94917 18.9121L6.68355 14.6328L6.69624 14.5098C6.7022 14.3868 6.68566 14.2632 6.64741 14.1455C6.59634 13.9885 6.50785 13.8457 6.3896 13.7305L3.27632 10.7002L3.2773 10.6992C3.11804 10.5446 3.00397 10.3492 2.95015 10.1338C2.89615 9.91735 2.90481 9.68974 2.97358 9.47754L3.03511 9.32324C3.10789 9.17378 3.21162 9.04038 3.3398 8.93262L3.47456 8.83496C3.56862 8.7761 3.67066 8.73089 3.7773 8.7002L3.9394 8.66504L8.24019 8.03613L8.36128 8.01172C8.48016 7.97944 8.59308 7.92531 8.69331 7.85254C8.82634 7.75583 8.93377 7.62783 9.00679 7.48047L10.9316 3.58105L11.0156 3.43652C11.1087 3.30023 11.2299 3.18444 11.371 3.09668L11.5175 3.01855C11.6688 2.95163 11.8333 2.917 12 2.91699L12.165 2.92871ZM10.3525 8.14355C10.1718 8.50919 9.90417 8.8267 9.57417 9.06641C9.2854 9.27607 8.95562 9.42168 8.60737 9.49414L8.45698 9.52051L4.76851 10.0586L7.43647 12.6562L7.54292 12.7666C7.78239 13.0301 7.96369 13.3419 8.07417 13.6816C8.18461 14.0214 8.22131 14.3804 8.18257 14.7344L8.16108 14.8857L7.53218 18.5537L10.8281 16.8213L10.9658 16.7539C11.29 16.608 11.6423 16.5323 11.999 16.5322L12.1523 16.5371C12.5072 16.5587 12.854 16.6555 13.1699 16.8213L16.4677 18.5547L15.8378 14.8857C15.7692 14.4836 15.7996 14.0696 15.9257 13.6816C16.052 13.2935 16.2711 12.9411 16.5634 12.6562L19.2294 10.0596L15.541 9.52051C15.1377 9.46131 14.7544 9.30513 14.4248 9.06543C14.0954 8.82582 13.8289 8.50966 13.6484 8.14453L12 4.80469L10.3525 8.14355Z" fill="#171717"/>
</svg>
