<svg width="24" height="24" viewBox="0 0 24 24" fill="none" xmlns="http://www.w3.org/2000/svg">
<path d="M16.4698 6.46975C16.7626 6.17695 17.2374 6.17703 17.5303 6.46975C17.8232 6.76262 17.8232 7.2374 17.5303 7.53029L13.0606 12L17.5303 16.4697L17.5821 16.5264C17.8224 16.821 17.8049 17.2557 17.5303 17.5303C17.2557 17.8049 16.821 17.8224 16.5264 17.5821L16.4698 17.5303L12 13.0606L7.53031 17.5303C7.23742 17.8232 6.76266 17.8232 6.46976 17.5303C6.17703 17.2374 6.17692 16.7626 6.46976 16.4697L10.9395 12L6.46976 7.53029L6.418 7.47365C6.17785 7.17907 6.19521 6.74429 6.46976 6.46975C6.74432 6.19524 7.17911 6.17784 7.47367 6.41799L7.53031 6.46975L12 10.9395L16.4698 6.46975Z" fill="#525252"/>
</svg>
