<svg width="121" height="40" viewBox="0 0 121 40" fill="none" xmlns="http://www.w3.org/2000/svg">
<path d="M10.9107 12.5405C10.2537 14.3301 11.7996 17.3405 11.7996 17.3405C11.7996 17.3405 10.3872 16.9313 9.31075 16.985C8.2343 17.0387 7.56795 17.0372 6.59342 17.4975C5.29929 18.1088 4.26656 18.6542 3.79964 20.0072C3.61703 20.5363 3.54137 20.8755 3.62186 21.4294C3.748 22.2975 5.1712 22.8308 6.11075 23.0294C7.88854 23.4052 10.733 23.5628 10.733 23.5628C10.733 23.5628 8.5939 24.7223 8.24408 26.0516C8.0674 26.7231 8.05126 27.1625 8.24408 27.8294C8.65675 29.2568 9.82884 29.7646 11.2663 30.1405C12.2067 30.3864 13.0454 30.3859 13.7552 30.1405C14.4649 29.8952 15.0062 29.678 15.3552 29.0739C15.7042 28.4697 15.533 27.2961 15.533 27.2961C15.533 27.2961 16.1587 27.8694 16.5996 28.185C17.8894 29.1083 19.2157 29.6389 20.333 29.785C22.1556 30.0233 23.714 30.2519 24.9552 28.8961C25.4379 28.3689 25.7866 28.0086 25.8441 27.2961C25.8888 26.742 25.3307 25.7423 24.9552 25.3405C24.1934 24.2531 22.4663 24.2739 22.4663 24.2739C22.4663 24.2739 24.6321 24.0108 25.8441 23.385C26.7694 22.9072 27.4814 22.7007 27.9774 21.785C28.3471 21.1025 28.524 20.5818 28.333 19.8294C27.749 18.742 26.7914 18.4599 25.6157 18.0308C24.3712 17.6753 23.7187 17.584 22.4663 17.6961C20.8475 17.8409 18.5552 19.1183 18.5552 19.1183C18.5552 19.1183 18.3621 16.7107 18.0219 15.2072C17.6342 13.4941 17.6663 12.3627 16.5996 10.9405C15.8721 9.97055 14.9618 9.57646 13.7552 9.69609C12.1919 9.85108 11.4521 11.0658 10.9107 12.5405Z" fill="white"/>
<path d="M120.609 11.3979V28.6019H113.283V11.3979H120.609Z" fill="white"/>
<path d="M112.292 18.02C112.292 20.132 111.522 21.452 110.444 22.486L112.798 28.58H105.23L103.8 24.4219H103.778V28.6019H96.7383V11.3979H103.492C109.784 11.3979 112.27 13.6199 112.292 18.02ZM102.348 17.0959L101.952 17.6459C103.184 18.4379 105.978 18.8559 107.628 18.8559V18.2399C105.978 18.2399 103.426 17.7559 102.348 17.0959Z" fill="white"/>
<path d="M86.1407 28.58H78.2207L83.5007 11.3979H90.9807L96.2607 28.58H88.3407L87.2407 25.0159L86.1407 28.58ZM84.7327 19.4279L84.3367 20.0219C86.0087 20.814 88.2527 21.0119 90.3427 21.0119V20.3519C88.2527 20.3519 86.2507 20.0879 84.7327 19.4279Z" fill="white"/>
<path d="M77.7421 11.3979V28.6019H69.0741L67.3141 22.816V28.6019H61.2861V11.3979H69.9761L72.3301 18.2399L72.9241 18.0859L71.4721 13.972V11.3979H77.7421Z" fill="white"/>
<path d="M60.0174 11.3979V28.6019H52.6914V11.3979H60.0174Z" fill="white"/>
<path d="M41.614 15.9079L40.536 19.076L41.13 19.23L43.814 11.3979H51.426V28.58H45.486V22.794L43.726 28.58H39.766L38.006 22.794V28.58H32V11.3979H40.206L41.614 15.9079Z" fill="white"/>
</svg>
