<svg width="121" height="40" viewBox="0 0 121 40" fill="none" xmlns="http://www.w3.org/2000/svg">
<path d="M10.9103 12.5405C10.2533 14.3301 11.7991 17.3405 11.7991 17.3405C11.7991 17.3405 10.3867 16.9313 9.31026 16.985C8.23381 17.0387 7.56746 17.0372 6.59294 17.4975C5.2988 18.1088 4.26607 18.6542 3.79915 20.0072C3.61655 20.5363 3.54088 20.8755 3.62137 21.4294C3.74751 22.2975 5.17071 22.8308 6.11026 23.0294C7.88805 23.4052 10.7325 23.5628 10.7325 23.5628C10.7325 23.5628 8.59341 24.7223 8.24359 26.0516C8.06691 26.7231 8.05077 27.1625 8.24359 27.8294C8.65626 29.2568 9.82836 29.7646 11.2658 30.1405C12.2062 30.3864 13.0449 30.3859 13.7547 30.1405C14.4645 29.8952 15.0057 29.678 15.3547 29.0739C15.7037 28.4697 15.5325 27.2961 15.5325 27.2961C15.5325 27.2961 16.1582 27.8694 16.5991 28.185C17.889 29.1083 19.2152 29.6389 20.3325 29.785C22.1551 30.0233 23.7135 30.2519 24.9547 28.8961C25.4374 28.3689 25.7861 28.0086 25.8436 27.2961C25.8883 26.742 25.3302 25.7423 24.9547 25.3405C24.193 24.2531 22.4658 24.2739 22.4658 24.2739C22.4658 24.2739 24.6316 24.0108 25.8436 23.385C26.7689 22.9072 27.4809 22.7007 27.9769 21.785C28.3466 21.1025 28.5235 20.5818 28.3325 19.8294C27.7485 18.742 26.791 18.4599 25.6152 18.0308C24.3707 17.6753 23.7182 17.584 22.4658 17.6961C20.847 17.8409 18.5547 19.1183 18.5547 19.1183C18.5547 19.1183 18.3616 16.7107 18.0214 15.2072C17.6337 13.4941 17.6658 12.3627 16.5991 10.9405C15.8717 9.97055 14.9613 9.57646 13.7547 9.69609C12.1914 9.85108 11.4517 11.0658 10.9103 12.5405Z" fill="#171717"/>
<path d="M120.609 11.3981V28.6021H113.283V11.3981H120.609Z" fill="#171717"/>
<path d="M112.292 18.0201C112.292 20.1321 111.522 21.4521 110.444 22.4861L112.798 28.5801H105.23L103.8 24.4221H103.778V28.6021H96.7383V11.3981H103.492C109.784 11.3981 112.27 13.6201 112.292 18.0201ZM102.348 17.0961L101.952 17.6461C103.184 18.4381 105.978 18.8561 107.628 18.8561V18.2401C105.978 18.2401 103.426 17.7561 102.348 17.0961Z" fill="#171717"/>
<path d="M86.1402 28.5801H78.2202L83.5002 11.3981H90.9802L96.2602 28.5801H88.3402L87.2402 25.0161L86.1402 28.5801ZM84.7322 19.4281L84.3362 20.0221C86.0082 20.8141 88.2522 21.0121 90.3422 21.0121V20.3521C88.2522 20.3521 86.2502 20.0881 84.7322 19.4281Z" fill="#171717"/>
<path d="M77.7421 11.3981V28.6021H69.0741L67.3141 22.8161V28.6021H61.2861V11.3981H69.9761L72.3301 18.2401L72.9241 18.0861L71.4721 13.9721V11.3981H77.7421Z" fill="#171717"/>
<path d="M60.0169 11.3981V28.6021H52.6909V11.3981H60.0169Z" fill="#171717"/>
<path d="M41.614 15.9081L40.536 19.0761L41.13 19.2301L43.814 11.3981H51.426V28.5801H45.486V22.7941L43.726 28.5801H39.766L38.006 22.7941V28.5801H32V11.3981H40.206L41.614 15.9081Z" fill="#171717"/>
</svg>
